<svg width="496" height="180" viewBox="0 0 496 180" fill="none" xmlns="http://www.w3.org/2000/svg">
<g filter="url(#filter0_i_5805_110493)">
<g clip-path="url(#clip0_5805_110493)">
<rect x="0.5" width="180" height="180" rx="40" fill="url(#paint0_radial_5805_110493)"/>
<g opacity="0.86" filter="url(#filter1_f_5805_110493)">
<ellipse cx="153.5" cy="171.24" rx="75" ry="9" transform="rotate(-6.01448 153.5 171.24)" fill="url(#paint1_linear_5805_110493)"/>
</g>
<g opacity="0.78" filter="url(#filter2_f_5805_110493)">
<ellipse cx="168.845" cy="160.316" rx="84.0245" ry="9" transform="rotate(-81.4232 168.845 160.316)" fill="url(#paint2_linear_5805_110493)"/>
</g>
<g opacity="0.86" filter="url(#filter3_f_5805_110493)">
<ellipse cx="3.50879" cy="27.2402" rx="75" ry="9" transform="rotate(-90 3.50879 27.2402)" fill="url(#paint3_linear_5805_110493)"/>
</g>
<g opacity="0.78" filter="url(#filter4_f_5805_110493)">
<ellipse cx="29.1532" cy="10.2983" rx="87.8012" ry="9" transform="rotate(171.277 29.1532 10.2983)" fill="url(#paint4_linear_5805_110493)"/>
</g>
<g filter="url(#filter5_d_5805_110493)">
<path d="M31.2725 70.3846C31.2725 60.7833 39.0558 53 48.6571 53H132.342C141.943 53 149.727 60.7834 149.727 70.3846V114.727H48.6571C39.0558 114.727 31.2725 106.943 31.2725 97.3421V70.3846Z" fill="white"/>
<path d="M68.5479 69.8828C70.6271 77.8719 72.0367 82.1697 82.5195 83.8633H82.5312C82.5293 83.8636 82.5273 83.864 82.5254 83.8643C82.5273 83.8646 82.5293 83.8649 82.5312 83.8652H82.5205C72.037 85.5587 70.6271 89.8566 68.5479 97.8457C66.4686 89.8568 65.0593 85.5587 54.5762 83.8652H54.5654C54.5671 83.865 54.5687 83.8645 54.5703 83.8643C54.5687 83.864 54.5671 83.8635 54.5654 83.8633H54.5771C65.0596 82.1696 66.4686 77.8718 68.5479 69.8828Z" fill="#0D1CA4"/>
<circle cx="116.129" cy="83.8632" r="10.3047" fill="#0D1CA4"/>
<path d="M149.727 136.127L125.015 114.726L149.727 114.726L149.727 136.127Z" fill="#00CE7C"/>
<path d="M131.912 120.424L125.356 114.708L150.067 114.708L131.912 120.424Z" fill="#00985B"/>
</g>
<g filter="url(#filter6_if_5805_110493)">
<path d="M40 3.11914H140C160.158 3.11914 176.5 19.4607 176.5 39.6191V139.619C176.5 159.778 160.158 176.119 140 176.119H40C19.8416 176.119 3.5 159.778 3.5 139.619V39.6191C3.5 19.4607 19.8416 3.11914 40 3.11914Z" stroke="url(#paint5_linear_5805_110493)" stroke-width="7"/>
</g>
</g>
</g>
<path d="M212.5 33.3018C212.5 31.5692 213.088 30.1151 214.264 28.9394C215.501 27.7019 216.986 27.0831 218.719 27.0831H272.738C274.471 27.0831 275.956 27.6709 277.194 28.8466C278.369 30.0842 278.957 31.5692 278.957 33.3018C278.957 35.0344 278.338 36.5195 277.101 37.7571C275.925 38.9327 274.471 39.5206 272.738 39.5206H252.04V77.1115C251.669 80.8242 249.627 82.8353 245.914 83.1447C244.182 83.1447 242.666 82.5878 241.366 81.474C240.129 80.2983 239.51 78.8441 239.51 77.1115V39.5206H218.719C216.986 39.5206 215.532 38.9018 214.356 37.6642C213.119 36.4886 212.5 35.0344 212.5 33.3018Z" fill="#1121B1"/>
<path d="M309.587 67.4586C309.587 65.726 310.175 64.2718 311.35 63.0962C312.588 61.8586 314.073 61.2398 315.806 61.2398H330.007L327.593 54.3713C326.603 51.8343 325.613 49.452 324.623 47.2244C323.695 44.9349 322.612 42.862 321.375 41.0057C320.261 39.1493 318.992 38.1593 317.569 38.0355C316.084 38.1593 314.754 39.1493 313.578 41.0057C312.402 42.862 311.319 44.9349 310.329 47.2244C309.401 49.452 308.442 51.8343 307.452 54.3713L298.634 78.5038C298.016 79.8032 297.211 80.8861 296.221 81.7524C295.293 82.5568 293.87 82.959 291.952 82.959C290.157 82.959 288.672 82.3403 287.496 81.1027C286.382 79.8651 285.887 78.3801 286.011 76.6475C286.073 75.843 286.259 75.1005 286.568 74.4198L296.778 48.0598C299.624 41.1294 302.471 35.5294 305.317 31.2599C308.102 27.0521 312.186 24.9173 317.569 24.8555C322.891 24.9173 326.944 27.0521 329.728 31.2599C332.575 35.4057 335.421 41.0057 338.267 48.0598L348.477 74.4198C348.787 75.1005 348.972 75.843 349.034 76.6475C349.158 78.3801 348.632 79.8651 347.456 81.1027C346.342 82.3403 344.888 82.959 343.094 82.959C341.052 82.959 339.536 82.5568 338.546 81.7524C337.618 80.8861 336.844 79.8032 336.225 78.5038L334.462 73.6773H315.806C314.073 73.6773 312.619 73.0585 311.443 71.821C310.206 70.6453 309.587 69.1911 309.587 67.4586Z" fill="#1121B1"/>
<path d="M370.846 77.1115C370.475 80.8242 368.433 82.8353 364.72 83.1447C362.988 83.1447 361.472 82.5878 360.172 81.474C358.935 80.2983 358.316 78.8441 358.316 77.1115V33.1162C358.378 31.3836 359.027 29.9604 360.265 28.8466C361.503 27.6709 362.988 27.0831 364.72 27.0831H403.611C403.982 27.0831 404.353 27.114 404.724 27.1759H405.281C409.613 27.2997 413.171 28.2897 415.955 30.146C418.74 32.0024 420.751 34.1372 421.988 36.5504C423.226 38.9018 423.845 41.2841 423.845 43.6974C423.845 46.1725 423.226 48.6167 421.988 51.0299C420.813 53.3813 418.802 55.4851 415.955 57.3415C413.171 59.1978 409.613 60.1879 405.281 60.3116H388.945C389.441 63.4055 390.462 65.695 392.008 67.1801C393.494 68.6652 395.381 69.4077 397.67 69.4077H417.719C419.451 69.4696 420.875 70.1193 421.988 71.3569C423.164 72.5944 423.752 74.0795 423.752 75.8121C423.69 77.4828 423.071 78.906 421.896 80.0817C420.782 81.1955 419.39 81.7833 417.719 81.8452H396C391.421 81.9071 387.275 80.1126 383.562 76.4618C379.849 72.811 377.591 68.4795 376.786 63.4674C375.673 57.8984 375.116 54.7735 375.116 54.0929C375.116 52.3603 375.704 50.9062 376.879 49.7305C378.117 48.4929 379.602 47.8741 381.334 47.8741H405.838C407.014 47.8123 407.973 47.5647 408.716 47.1316C409.52 46.6366 410.108 46.1106 410.479 45.5537C410.85 44.9349 411.036 44.3161 411.036 43.6974C411.036 43.0786 410.85 42.4907 410.479 41.9338C410.108 41.3151 409.52 40.7891 408.716 40.3559C407.973 39.8609 407.014 39.5825 405.838 39.5206H373.259C371.651 39.5825 370.846 40.3869 370.846 41.9338V77.1115Z" fill="#1121B1"/>
<path d="M493.922 33.3018C493.922 35.0344 493.303 36.4886 492.065 37.6642C490.89 38.9018 489.436 39.5206 487.703 39.5206H450.576C449.4 39.5825 448.41 39.8609 447.606 40.3559C446.863 40.7891 446.307 41.3151 445.935 41.9338C445.564 42.4907 445.378 43.0786 445.378 43.6974C445.378 44.3161 445.564 44.9349 445.935 45.5537C446.307 46.1106 446.863 46.6366 447.606 47.1316C448.41 47.5647 449.4 47.8123 450.576 47.8741H476.936C481.268 47.9979 484.826 49.0189 487.61 50.9371C490.457 52.7934 492.468 54.9592 493.643 57.4343C494.881 59.8475 495.5 62.3227 495.5 64.8597C495.5 67.3348 494.881 69.8099 493.643 72.2851C492.406 74.6983 490.395 76.864 487.61 78.7823C484.826 80.6386 481.268 81.5668 476.936 81.5668H476.379C476.008 81.6287 475.637 81.6596 475.266 81.6596H440.181C438.448 81.6596 436.963 81.0718 435.725 79.8961C434.55 78.6585 433.962 77.1734 433.962 75.4408C433.962 73.7083 434.581 72.2541 435.818 71.0784C436.994 69.8409 438.448 69.2221 440.181 69.2221H477.493C478.669 69.284 479.628 69.0674 480.37 68.5724C481.175 68.0773 481.763 67.5204 482.134 66.9017C482.505 66.221 482.691 65.5403 482.691 64.8597C482.691 64.4265 482.505 63.8387 482.134 63.0962C481.763 62.2917 481.175 61.642 480.37 61.147C479.628 60.652 478.669 60.3735 477.493 60.3116H451.133C446.802 60.1879 443.213 59.1978 440.366 57.3415C437.582 55.4851 435.571 53.3813 434.333 51.0299C433.157 48.6167 432.57 46.1725 432.57 43.6974C432.57 41.2841 433.188 38.9018 434.426 36.5504C435.663 34.1372 437.675 32.0024 440.459 30.146C443.244 28.2897 446.802 27.2997 451.133 27.1759H451.69C452.061 27.114 452.432 27.0831 452.804 27.0831H487.703C489.436 27.0831 490.89 27.7019 492.065 28.9394C493.303 30.1151 493.922 31.5692 493.922 33.3018Z" fill="#1121B1"/>
<path d="M220.441 119.665V98.8805H212.5V96.6245H230.702V98.8805H222.761V119.665H220.441Z" fill="#1121B1"/>
<path d="M237.919 120.145C236.257 120.145 234.815 119.771 233.594 119.025C232.384 118.278 231.442 117.227 230.768 115.873C230.095 114.518 229.758 112.929 229.758 111.105C229.758 109.217 230.089 107.585 230.752 106.209C231.415 104.833 232.347 103.771 233.547 103.025C234.757 102.278 236.183 101.905 237.825 101.905C239.509 101.905 240.945 102.299 242.134 103.089C243.324 103.867 244.223 104.987 244.834 106.449C245.444 107.91 245.723 109.654 245.671 111.681H243.303V110.849C243.261 108.609 242.782 106.918 241.866 105.777C240.961 104.635 239.635 104.065 237.888 104.065C236.057 104.065 234.652 104.667 233.673 105.873C232.705 107.078 232.221 108.795 232.221 111.025C232.221 113.201 232.705 114.891 233.673 116.097C234.652 117.291 236.036 117.889 237.825 117.889C239.046 117.889 240.108 117.606 241.014 117.041C241.929 116.465 242.65 115.638 243.176 114.561L245.339 115.409C244.665 116.913 243.671 118.081 242.355 118.913C241.05 119.734 239.572 120.145 237.919 120.145ZM231.4 111.681V109.713H244.423V111.681H231.4Z" fill="#1121B1"/>
<path d="M256.246 120.145C254.531 120.145 253.078 119.755 251.889 118.977C250.7 118.198 249.795 117.126 249.174 115.761C248.564 114.385 248.248 112.806 248.227 111.025C248.248 109.211 248.574 107.622 249.206 106.257C249.837 104.881 250.747 103.814 251.937 103.057C253.126 102.289 254.568 101.905 256.262 101.905C257.988 101.905 259.488 102.331 260.761 103.185C262.045 104.038 262.924 105.206 263.398 106.689L261.124 107.425C260.724 106.39 260.088 105.59 259.214 105.025C258.351 104.449 257.362 104.161 256.246 104.161C254.994 104.161 253.957 104.454 253.136 105.041C252.315 105.617 251.705 106.422 251.305 107.457C250.905 108.491 250.7 109.681 250.689 111.025C250.71 113.094 251.184 114.758 252.11 116.017C253.036 117.265 254.415 117.889 256.246 117.889C257.404 117.889 258.388 117.622 259.198 117.089C260.019 116.545 260.64 115.755 261.061 114.721L263.398 115.425C262.766 116.961 261.84 118.134 260.619 118.945C259.398 119.745 257.941 120.145 256.246 120.145Z" fill="#1121B1"/>
<path d="M278.97 119.665V110.849C278.97 109.889 278.88 109.009 278.701 108.209C278.522 107.398 278.233 106.694 277.833 106.097C277.444 105.489 276.933 105.019 276.302 104.689C275.681 104.358 274.923 104.193 274.028 104.193C273.208 104.193 272.481 104.337 271.85 104.625C271.229 104.913 270.703 105.329 270.271 105.873C269.85 106.406 269.529 107.057 269.308 107.825C269.087 108.593 268.977 109.467 268.977 110.449L267.335 110.081C267.335 108.31 267.64 106.822 268.251 105.617C268.861 104.411 269.703 103.499 270.776 102.881C271.85 102.262 273.081 101.953 274.471 101.953C275.491 101.953 276.381 102.113 277.138 102.433C277.907 102.753 278.554 103.185 279.08 103.729C279.617 104.273 280.048 104.897 280.375 105.601C280.701 106.294 280.938 107.035 281.085 107.825C281.232 108.603 281.306 109.382 281.306 110.161V119.665H278.97ZM266.64 119.665V96.6245H268.74V109.633H268.977V119.665H266.64Z" fill="#1121B1"/>
<path d="M297.716 119.665V110.849C297.716 109.889 297.627 109.009 297.448 108.209C297.269 107.398 296.979 106.694 296.579 106.097C296.19 105.489 295.68 105.019 295.048 104.689C294.427 104.358 293.669 104.193 292.775 104.193C291.954 104.193 291.228 104.337 290.596 104.625C289.975 104.913 289.449 105.329 289.018 105.873C288.597 106.406 288.276 107.057 288.055 107.825C287.834 108.593 287.723 109.467 287.723 110.449L286.081 110.081C286.081 108.31 286.387 106.822 286.997 105.617C287.607 104.411 288.449 103.499 289.523 102.881C290.596 102.262 291.828 101.953 293.217 101.953C294.238 101.953 295.127 102.113 295.885 102.433C296.653 102.753 297.3 103.185 297.827 103.729C298.363 104.273 298.795 104.897 299.121 105.601C299.447 106.294 299.684 107.035 299.831 107.825C299.979 108.603 300.052 109.382 300.052 110.161V119.665H297.716ZM285.387 119.665V102.385H287.486V106.641H287.723V119.665H285.387Z" fill="#1121B1"/>
<path d="M304.465 99.1045V96.4645H306.785V99.1045H304.465ZM304.465 119.665V102.385H306.785V119.665H304.465Z" fill="#1121B1"/>
<path d="M318.59 120.145C316.875 120.145 315.423 119.755 314.233 118.977C313.044 118.198 312.139 117.126 311.518 115.761C310.908 114.385 310.592 112.806 310.571 111.025C310.592 109.211 310.918 107.622 311.55 106.257C312.181 104.881 313.092 103.814 314.281 103.057C315.47 102.289 316.912 101.905 318.606 101.905C320.332 101.905 321.832 102.331 323.105 103.185C324.389 104.038 325.268 105.206 325.742 106.689L323.468 107.425C323.069 106.39 322.432 105.59 321.558 105.025C320.695 104.449 319.706 104.161 318.59 104.161C317.338 104.161 316.301 104.454 315.481 105.041C314.66 105.617 314.049 106.422 313.649 107.457C313.249 108.491 313.044 109.681 313.034 111.025C313.055 113.094 313.528 114.758 314.454 116.017C315.381 117.265 316.759 117.889 318.59 117.889C319.748 117.889 320.732 117.622 321.543 117.089C322.363 116.545 322.984 115.755 323.405 114.721L325.742 115.425C325.11 116.961 324.184 118.134 322.963 118.945C321.743 119.745 320.285 120.145 318.59 120.145Z" fill="#1121B1"/>
<path d="M333.786 120.145C332.502 120.145 331.423 119.91 330.55 119.441C329.687 118.971 329.039 118.347 328.608 117.569C328.176 116.79 327.961 115.942 327.961 115.025C327.961 114.086 328.145 113.286 328.513 112.625C328.892 111.953 329.403 111.403 330.045 110.977C330.697 110.55 331.45 110.225 332.302 110.001C333.165 109.787 334.117 109.601 335.159 109.441C336.212 109.27 337.238 109.126 338.238 109.009C339.248 108.881 340.132 108.758 340.89 108.641L340.069 109.153C340.101 107.446 339.774 106.182 339.09 105.361C338.406 104.539 337.217 104.129 335.522 104.129C334.354 104.129 333.365 104.395 332.555 104.929C331.755 105.462 331.192 106.305 330.865 107.457L328.608 106.785C328.997 105.238 329.781 104.038 330.96 103.185C332.139 102.331 333.67 101.905 335.554 101.905C337.112 101.905 338.432 102.203 339.516 102.801C340.611 103.387 341.384 104.241 341.837 105.361C342.048 105.862 342.184 106.422 342.247 107.041C342.311 107.659 342.342 108.289 342.342 108.929V119.665H340.274V115.329L340.874 115.585C340.295 117.067 339.395 118.198 338.175 118.977C336.954 119.755 335.491 120.145 333.786 120.145ZM334.054 118.113C335.138 118.113 336.085 117.915 336.896 117.521C337.706 117.126 338.359 116.587 338.853 115.905C339.348 115.211 339.669 114.433 339.816 113.569C339.943 113.014 340.011 112.406 340.022 111.745C340.032 111.073 340.037 110.571 340.037 110.241L340.921 110.705C340.132 110.811 339.274 110.918 338.348 111.025C337.433 111.131 336.528 111.254 335.633 111.393C334.749 111.531 333.949 111.697 333.233 111.889C332.749 112.027 332.281 112.225 331.828 112.481C331.376 112.726 331.002 113.057 330.708 113.473C330.423 113.889 330.281 114.406 330.281 115.025C330.281 115.526 330.402 116.011 330.644 116.481C330.897 116.95 331.297 117.339 331.844 117.649C332.402 117.958 333.139 118.113 334.054 118.113Z" fill="#1121B1"/>
<path d="M346.768 119.665V96.1445H349.088V119.665H346.768Z" fill="#1121B1"/>
<path d="M358.563 119.665L366.393 96.6245H369.471L377.302 119.665H374.886L367.451 97.9365H368.366L360.978 119.665H358.563ZM362.052 114.081V111.873H373.797V114.081H362.052Z" fill="#1121B1"/>
<path d="M386.514 120.129C384.515 120.129 382.868 119.691 381.573 118.817C380.289 117.942 379.5 116.726 379.205 115.169L381.573 114.769C381.826 115.75 382.399 116.534 383.294 117.121C384.199 117.697 385.314 117.985 386.641 117.985C387.935 117.985 388.956 117.713 389.703 117.169C390.45 116.614 390.824 115.862 390.824 114.913C390.824 114.379 390.703 113.947 390.461 113.617C390.229 113.275 389.75 112.961 389.024 112.673C388.298 112.385 387.214 112.043 385.772 111.649C384.225 111.222 383.015 110.795 382.141 110.369C381.268 109.942 380.647 109.451 380.279 108.897C379.91 108.331 379.726 107.643 379.726 106.833C379.726 105.851 380 104.993 380.547 104.257C381.094 103.51 381.852 102.934 382.82 102.529C383.788 102.113 384.915 101.905 386.198 101.905C387.482 101.905 388.63 102.118 389.64 102.545C390.661 102.961 391.482 103.547 392.103 104.305C392.724 105.062 393.092 105.942 393.208 106.945L390.84 107.377C390.682 106.363 390.182 105.563 389.34 104.977C388.509 104.379 387.451 104.07 386.167 104.049C384.957 104.017 383.973 104.251 383.215 104.753C382.457 105.243 382.078 105.899 382.078 106.721C382.078 107.179 382.215 107.574 382.489 107.905C382.762 108.225 383.257 108.529 383.973 108.817C384.699 109.105 385.73 109.419 387.067 109.761C388.635 110.166 389.866 110.593 390.761 111.041C391.655 111.489 392.292 112.017 392.671 112.625C393.05 113.233 393.239 113.985 393.239 114.881C393.239 116.513 392.639 117.798 391.44 118.737C390.25 119.665 388.609 120.129 386.514 120.129Z" fill="#1121B1"/>
<path d="M403.102 120.129C401.103 120.129 399.456 119.691 398.161 118.817C396.877 117.942 396.088 116.726 395.793 115.169L398.161 114.769C398.414 115.75 398.987 116.534 399.882 117.121C400.787 117.697 401.903 117.985 403.229 117.985C404.523 117.985 405.544 117.713 406.291 117.169C407.038 116.614 407.412 115.862 407.412 114.913C407.412 114.379 407.291 113.947 407.049 113.617C406.817 113.275 406.339 112.961 405.612 112.673C404.886 112.385 403.802 112.043 402.36 111.649C400.813 111.222 399.603 110.795 398.729 110.369C397.856 109.942 397.235 109.451 396.867 108.897C396.498 108.331 396.314 107.643 396.314 106.833C396.314 105.851 396.588 104.993 397.135 104.257C397.682 103.51 398.44 102.934 399.408 102.529C400.377 102.113 401.503 101.905 402.787 101.905C404.071 101.905 405.218 102.118 406.228 102.545C407.249 102.961 408.07 103.547 408.691 104.305C409.312 105.062 409.68 105.942 409.796 106.945L407.428 107.377C407.27 106.363 406.77 105.563 405.928 104.977C405.097 104.379 404.039 104.07 402.755 104.049C401.545 104.017 400.561 104.251 399.803 104.753C399.045 105.243 398.666 105.899 398.666 106.721C398.666 107.179 398.803 107.574 399.077 107.905C399.35 108.225 399.845 108.529 400.561 108.817C401.287 109.105 402.318 109.419 403.655 109.761C405.223 110.166 406.454 110.593 407.349 111.041C408.243 111.489 408.88 112.017 409.259 112.625C409.638 113.233 409.827 113.985 409.827 114.881C409.827 116.513 409.227 117.798 408.028 118.737C406.838 119.665 405.197 120.129 403.102 120.129Z" fill="#1121B1"/>
<path d="M413.644 99.1045V96.4645H415.965V99.1045H413.644ZM413.644 119.665V102.385H415.965V119.665H413.644Z" fill="#1121B1"/>
<path d="M427.06 120.129C425.06 120.129 423.413 119.691 422.118 118.817C420.834 117.942 420.045 116.726 419.75 115.169L422.118 114.769C422.371 115.75 422.945 116.534 423.839 117.121C424.744 117.697 425.86 117.985 427.186 117.985C428.48 117.985 429.501 117.713 430.248 117.169C430.996 116.614 431.369 115.862 431.369 114.913C431.369 114.379 431.248 113.947 431.006 113.617C430.775 113.275 430.296 112.961 429.57 112.673C428.843 112.385 427.759 112.043 426.318 111.649C424.77 111.222 423.56 110.795 422.687 110.369C421.813 109.942 421.192 109.451 420.824 108.897C420.456 108.331 420.271 107.643 420.271 106.833C420.271 105.851 420.545 104.993 421.092 104.257C421.639 103.51 422.397 102.934 423.365 102.529C424.334 102.113 425.46 101.905 426.744 101.905C428.028 101.905 429.175 102.118 430.185 102.545C431.206 102.961 432.027 103.547 432.648 104.305C433.269 105.062 433.637 105.942 433.753 106.945L431.385 107.377C431.227 106.363 430.727 105.563 429.885 104.977C429.054 104.379 427.996 104.07 426.712 104.049C425.502 104.017 424.518 104.251 423.76 104.753C423.002 105.243 422.624 105.899 422.624 106.721C422.624 107.179 422.76 107.574 423.034 107.905C423.308 108.225 423.802 108.529 424.518 108.817C425.244 109.105 426.275 109.419 427.612 109.761C429.18 110.166 430.411 110.593 431.306 111.041C432.201 111.489 432.837 112.017 433.216 112.625C433.595 113.233 433.785 113.985 433.785 114.881C433.785 116.513 433.185 117.798 431.985 118.737C430.796 119.665 429.154 120.129 427.06 120.129Z" fill="#1121B1"/>
<path d="M446.568 119.665C445.61 119.867 444.663 119.947 443.727 119.905C442.8 119.862 441.969 119.659 441.232 119.297C440.506 118.934 439.954 118.369 439.575 117.601C439.27 116.961 439.101 116.315 439.07 115.665C439.049 115.003 439.038 114.251 439.038 113.409V97.5845H441.343V113.313C441.343 114.038 441.348 114.646 441.359 115.137C441.38 115.617 441.49 116.043 441.69 116.417C442.069 117.131 442.669 117.558 443.49 117.697C444.321 117.835 445.347 117.803 446.568 117.601V119.665ZM435.391 104.401V102.385H446.568V104.401H435.391Z" fill="#1121B1"/>
<path d="M454.805 120.145C453.521 120.145 452.443 119.91 451.569 119.441C450.706 118.971 450.059 118.347 449.627 117.569C449.196 116.79 448.98 115.942 448.98 115.025C448.98 114.086 449.164 113.286 449.533 112.625C449.911 111.953 450.422 111.403 451.064 110.977C451.716 110.55 452.469 110.225 453.321 110.001C454.184 109.787 455.137 109.601 456.179 109.441C457.231 109.27 458.257 109.126 459.257 109.009C460.267 108.881 461.151 108.758 461.909 108.641L461.088 109.153C461.12 107.446 460.794 106.182 460.109 105.361C459.425 104.539 458.236 104.129 456.542 104.129C455.374 104.129 454.384 104.395 453.574 104.929C452.774 105.462 452.211 106.305 451.885 107.457L449.627 106.785C450.017 105.238 450.801 104.038 451.979 103.185C453.158 102.331 454.689 101.905 456.573 101.905C458.131 101.905 459.452 102.203 460.536 102.801C461.63 103.387 462.404 104.241 462.856 105.361C463.067 105.862 463.204 106.422 463.267 107.041C463.33 107.659 463.361 108.289 463.361 108.929V119.665H461.293V115.329L461.893 115.585C461.314 117.067 460.415 118.198 459.194 118.977C457.973 119.755 456.51 120.145 454.805 120.145ZM455.074 118.113C456.158 118.113 457.105 117.915 457.915 117.521C458.726 117.126 459.378 116.587 459.873 115.905C460.367 115.211 460.688 114.433 460.836 113.569C460.962 113.014 461.03 112.406 461.041 111.745C461.051 111.073 461.057 110.571 461.057 110.241L461.941 110.705C461.151 110.811 460.294 110.918 459.367 111.025C458.452 111.131 457.547 111.254 456.652 111.393C455.768 111.531 454.968 111.697 454.253 111.889C453.769 112.027 453.3 112.225 452.848 112.481C452.395 112.726 452.022 113.057 451.727 113.473C451.443 113.889 451.301 114.406 451.301 115.025C451.301 115.526 451.422 116.011 451.664 116.481C451.916 116.95 452.316 117.339 452.863 117.649C453.421 117.958 454.158 118.113 455.074 118.113Z" fill="#1121B1"/>
<path d="M479.785 119.665V110.849C479.785 109.889 479.695 109.009 479.516 108.209C479.337 107.398 479.048 106.694 478.648 106.097C478.259 105.489 477.748 105.019 477.117 104.689C476.496 104.358 475.738 104.193 474.843 104.193C474.023 104.193 473.296 104.337 472.665 104.625C472.044 104.913 471.518 105.329 471.086 105.873C470.665 106.406 470.344 107.057 470.123 107.825C469.902 108.593 469.792 109.467 469.792 110.449L468.15 110.081C468.15 108.31 468.455 106.822 469.066 105.617C469.676 104.411 470.518 103.499 471.591 102.881C472.665 102.262 473.896 101.953 475.285 101.953C476.306 101.953 477.196 102.113 477.953 102.433C478.722 102.753 479.369 103.185 479.895 103.729C480.432 104.273 480.863 104.897 481.19 105.601C481.516 106.294 481.753 107.035 481.9 107.825C482.047 108.603 482.121 109.382 482.121 110.161V119.665H479.785ZM467.455 119.665V102.385H469.555V106.641H469.792V119.665H467.455Z" fill="#1121B1"/>
<path d="M495.5 119.665C494.542 119.867 493.595 119.947 492.658 119.905C491.732 119.862 490.901 119.659 490.164 119.297C489.438 118.934 488.885 118.369 488.507 117.601C488.201 116.961 488.033 116.315 488.001 115.665C487.98 115.003 487.97 114.251 487.97 113.409V97.5845H490.275V113.313C490.275 114.038 490.28 114.646 490.29 115.137C490.312 115.617 490.422 116.043 490.622 116.417C491.001 117.131 491.601 117.558 492.422 117.697C493.253 117.835 494.279 117.803 495.5 117.601V119.665ZM484.323 104.401V102.385H495.5V104.401H484.323Z" fill="#1121B1"/>
<path d="M215.307 155.76V137.914C215.307 137.483 215.327 137.057 215.367 136.637C215.417 136.216 215.512 135.816 215.653 135.437C215.793 135.047 216.013 134.688 216.313 134.36C216.643 133.991 217.004 133.724 217.394 133.56C217.784 133.386 218.19 133.273 218.61 133.221C219.04 133.17 219.461 133.145 219.871 133.145H221.943V135.052H220.021C219.18 135.052 218.55 135.262 218.129 135.683C217.719 136.104 217.514 136.765 217.514 137.668V155.76H215.307ZM212.5 141.083V139.145H221.943V141.083H212.5Z" fill="#1121B1"/>
<path d="M230.528 156.221C228.917 156.221 227.541 155.847 226.4 155.098C225.259 154.35 224.383 153.314 223.773 151.991C223.162 150.668 222.857 149.15 222.857 147.437C222.857 145.693 223.167 144.165 223.788 142.852C224.408 141.539 225.289 140.519 226.43 139.791C227.581 139.052 228.947 138.683 230.528 138.683C232.15 138.683 233.531 139.057 234.672 139.806C235.822 140.545 236.698 141.575 237.299 142.898C237.909 144.211 238.214 145.724 238.214 147.437C238.214 149.18 237.909 150.714 237.299 152.037C236.688 153.35 235.807 154.375 234.657 155.114C233.506 155.852 232.13 156.221 230.528 156.221ZM230.528 154.052C232.33 154.052 233.671 153.442 234.551 152.221C235.432 150.991 235.873 149.396 235.873 147.437C235.873 145.427 235.427 143.827 234.536 142.637C233.656 141.447 232.32 140.852 230.528 140.852C229.317 140.852 228.316 141.134 227.526 141.698C226.745 142.252 226.16 143.027 225.769 144.021C225.389 145.006 225.199 146.145 225.199 147.437C225.199 149.437 225.649 151.042 226.55 152.252C227.451 153.452 228.777 154.052 230.528 154.052Z" fill="#1121B1"/>
<path d="M241.526 155.76V139.145H243.508V143.145L243.117 142.621C243.297 142.129 243.533 141.678 243.823 141.268C244.113 140.847 244.428 140.504 244.769 140.237C245.189 139.857 245.679 139.57 246.24 139.375C246.8 139.17 247.366 139.052 247.936 139.021C248.507 138.98 249.027 139.021 249.497 139.145V141.268C248.907 141.114 248.261 141.078 247.561 141.16C246.86 141.242 246.215 141.529 245.624 142.021C245.084 142.452 244.678 142.97 244.408 143.575C244.138 144.17 243.958 144.806 243.868 145.483C243.778 146.15 243.733 146.811 243.733 147.468V155.76H241.526Z" fill="#1121B1"/>
<path d="M258.356 155.76V133.606H266.702C266.913 133.606 267.148 133.616 267.408 133.637C267.678 133.647 267.948 133.678 268.219 133.729C269.35 133.904 270.305 134.309 271.086 134.945C271.877 135.57 272.472 136.36 272.872 137.314C273.283 138.268 273.488 139.324 273.488 140.483C273.488 142.155 273.058 143.606 272.197 144.837C271.336 146.068 270.105 146.842 268.504 147.16L267.738 147.345H260.563V155.76H258.356ZM271.446 155.76L267.183 146.745L269.3 145.914L273.983 155.76H271.446ZM260.563 145.191H266.642C266.823 145.191 267.033 145.18 267.273 145.16C267.513 145.139 267.748 145.104 267.978 145.052C268.719 144.888 269.325 144.575 269.795 144.114C270.275 143.652 270.631 143.104 270.861 142.468C271.101 141.832 271.221 141.17 271.221 140.483C271.221 139.796 271.101 139.134 270.861 138.498C270.631 137.852 270.275 137.298 269.795 136.837C269.325 136.375 268.719 136.062 267.978 135.898C267.748 135.847 267.513 135.816 267.273 135.806C267.033 135.786 266.823 135.775 266.642 135.775H260.563V145.191Z" fill="#1121B1"/>
<path d="M284.157 156.221C282.576 156.221 281.205 155.862 280.044 155.145C278.893 154.427 277.997 153.416 277.357 152.114C276.716 150.811 276.396 149.283 276.396 147.529C276.396 145.714 276.711 144.145 277.342 142.821C277.972 141.498 278.858 140.478 279.999 139.76C281.15 139.042 282.506 138.683 284.067 138.683C285.668 138.683 287.034 139.062 288.165 139.821C289.296 140.57 290.152 141.647 290.732 143.052C291.313 144.457 291.578 146.134 291.528 148.083H289.276V147.283C289.236 145.129 288.781 143.504 287.91 142.406C287.049 141.309 285.788 140.76 284.127 140.76C282.386 140.76 281.05 141.339 280.119 142.498C279.198 143.657 278.738 145.309 278.738 147.452C278.738 149.545 279.198 151.17 280.119 152.329C281.05 153.478 282.366 154.052 284.067 154.052C285.228 154.052 286.239 153.78 287.1 153.237C287.97 152.683 288.656 151.888 289.156 150.852L291.213 151.668C290.572 153.114 289.627 154.237 288.376 155.037C287.135 155.827 285.728 156.221 284.157 156.221ZM277.957 148.083V146.191H290.342V148.083H277.957Z" fill="#1121B1"/>
<path d="M299.205 156.221C297.984 156.221 296.958 155.996 296.128 155.545C295.307 155.093 294.691 154.493 294.281 153.745C293.871 152.996 293.666 152.18 293.666 151.298C293.666 150.396 293.841 149.627 294.191 148.991C294.551 148.345 295.037 147.816 295.647 147.406C296.268 146.996 296.983 146.683 297.794 146.468C298.615 146.262 299.52 146.083 300.511 145.929C301.512 145.765 302.488 145.627 303.438 145.514C304.399 145.391 305.24 145.273 305.96 145.16L305.18 145.652C305.21 144.011 304.9 142.796 304.249 142.006C303.599 141.216 302.468 140.821 300.856 140.821C299.745 140.821 298.805 141.078 298.034 141.591C297.274 142.104 296.738 142.914 296.428 144.021L294.281 143.375C294.651 141.888 295.397 140.734 296.518 139.914C297.639 139.093 299.095 138.683 300.886 138.683C302.368 138.683 303.624 138.97 304.654 139.545C305.695 140.109 306.431 140.929 306.861 142.006C307.061 142.488 307.191 143.027 307.251 143.621C307.312 144.216 307.342 144.821 307.342 145.437V155.76H305.375V151.591L305.945 151.837C305.395 153.262 304.539 154.35 303.378 155.098C302.217 155.847 300.826 156.221 299.205 156.221ZM299.46 154.268C300.491 154.268 301.392 154.078 302.162 153.698C302.933 153.319 303.554 152.801 304.024 152.145C304.494 151.478 304.8 150.729 304.94 149.898C305.06 149.365 305.125 148.78 305.135 148.145C305.145 147.498 305.15 147.016 305.15 146.698L305.99 147.145C305.24 147.247 304.424 147.35 303.544 147.452C302.673 147.555 301.812 147.673 300.961 147.806C300.121 147.939 299.36 148.098 298.68 148.283C298.219 148.416 297.774 148.606 297.344 148.852C296.913 149.088 296.558 149.406 296.278 149.806C296.008 150.206 295.872 150.704 295.872 151.298C295.872 151.78 295.987 152.247 296.218 152.698C296.458 153.15 296.838 153.524 297.359 153.821C297.889 154.119 298.59 154.268 299.46 154.268Z" fill="#1121B1"/>
<path d="M311.55 155.76V133.145H313.757V155.76H311.55Z" fill="#1121B1"/>
<path d="M327.084 155.76C326.173 155.955 325.273 156.032 324.382 155.991C323.501 155.95 322.711 155.755 322.01 155.406C321.32 155.057 320.794 154.514 320.434 153.775C320.144 153.16 319.984 152.539 319.954 151.914C319.933 151.278 319.923 150.555 319.923 149.745V134.529H322.115V149.652C322.115 150.35 322.12 150.934 322.13 151.406C322.15 151.868 322.255 152.278 322.446 152.637C322.806 153.324 323.376 153.734 324.157 153.868C324.948 154.001 325.923 153.97 327.084 153.775V155.76ZM316.456 141.083V139.145H327.084V141.083H316.456Z" fill="#1121B1"/>
<path d="M330.579 135.991V133.452H332.785V135.991H330.579ZM330.579 155.76V139.145H332.785V155.76H330.579Z" fill="#1121B1"/>
<path d="M356.621 155.76L356.636 144.852C356.636 143.57 356.286 142.565 355.586 141.837C354.895 141.098 354.014 140.729 352.944 140.729C352.333 140.729 351.738 140.873 351.157 141.16C350.577 141.447 350.096 141.909 349.716 142.545C349.346 143.18 349.161 144.011 349.161 145.037L347.854 144.652C347.824 143.462 348.05 142.421 348.53 141.529C349.02 140.637 349.691 139.945 350.542 139.452C351.402 138.95 352.373 138.698 353.454 138.698C355.085 138.698 356.391 139.216 357.372 140.252C358.353 141.278 358.843 142.668 358.843 144.421L358.828 155.76H356.621ZM337.271 155.76V139.145H339.253V143.237H339.493V155.76H337.271ZM346.969 155.76L346.984 145.006C346.984 143.683 346.639 142.642 345.948 141.883C345.267 141.114 344.367 140.729 343.246 140.729C342.125 140.729 341.219 141.124 340.529 141.914C339.838 142.693 339.493 143.734 339.493 145.037L338.172 144.298C338.172 143.232 338.417 142.278 338.907 141.437C339.398 140.586 340.068 139.919 340.919 139.437C341.77 138.945 342.735 138.698 343.816 138.698C344.847 138.698 345.763 138.924 346.563 139.375C347.374 139.827 348.01 140.483 348.47 141.345C348.93 142.206 349.161 143.252 349.161 144.483L349.146 155.76H346.969Z" fill="#1121B1"/>
<path d="M369.509 156.221C367.927 156.221 366.556 155.862 365.395 155.145C364.244 154.427 363.349 153.416 362.708 152.114C362.068 150.811 361.747 149.283 361.747 147.529C361.747 145.714 362.063 144.145 362.693 142.821C363.324 141.498 364.209 140.478 365.35 139.76C366.501 139.042 367.857 138.683 369.419 138.683C371.02 138.683 372.386 139.062 373.517 139.821C374.648 140.57 375.503 141.647 376.084 143.052C376.664 144.457 376.93 146.134 376.879 148.083H374.628V147.283C374.588 145.129 374.132 143.504 373.262 142.406C372.401 141.309 371.14 140.76 369.479 140.76C367.737 140.76 366.401 141.339 365.47 142.498C364.55 143.657 364.089 145.309 364.089 147.452C364.089 149.545 364.55 151.17 365.47 152.329C366.401 153.478 367.717 154.052 369.419 154.052C370.579 154.052 371.59 153.78 372.451 153.237C373.322 152.683 374.007 151.888 374.508 150.852L376.564 151.668C375.924 153.114 374.978 154.237 373.727 155.037C372.486 155.827 371.08 156.221 369.509 156.221ZM363.309 148.083V146.191H375.694V148.083H363.309Z" fill="#1121B1"/>
<path d="M393.728 156.221C392.216 156.221 390.855 155.965 389.644 155.452C388.443 154.929 387.448 154.191 386.657 153.237C385.876 152.283 385.366 151.15 385.126 149.837L387.378 149.452C387.738 150.888 388.498 152.016 389.659 152.837C390.82 153.647 392.206 154.052 393.818 154.052C394.879 154.052 395.829 153.883 396.67 153.545C397.511 153.196 398.171 152.704 398.652 152.068C399.132 151.432 399.372 150.678 399.372 149.806C399.372 149.232 399.272 148.745 399.072 148.345C398.872 147.934 398.607 147.596 398.276 147.329C397.946 147.062 397.586 146.842 397.195 146.668C396.805 146.483 396.425 146.334 396.054 146.221L390.575 144.545C389.915 144.35 389.304 144.104 388.744 143.806C388.183 143.498 387.693 143.134 387.272 142.714C386.862 142.283 386.542 141.78 386.312 141.206C386.081 140.632 385.966 139.975 385.966 139.237C385.966 137.986 386.287 136.904 386.927 135.991C387.568 135.078 388.443 134.375 389.554 133.883C390.665 133.391 391.931 133.15 393.352 133.16C394.793 133.16 396.079 133.421 397.21 133.945C398.351 134.468 399.292 135.216 400.033 136.191C400.773 137.155 401.264 138.298 401.504 139.621L399.192 140.052C399.042 139.088 398.697 138.252 398.156 137.545C397.616 136.837 396.925 136.293 396.084 135.914C395.254 135.524 394.338 135.324 393.337 135.314C392.367 135.314 391.501 135.483 390.74 135.821C389.99 136.15 389.394 136.601 388.954 137.175C388.513 137.75 388.293 138.406 388.293 139.145C388.293 139.893 388.493 140.493 388.894 140.945C389.304 141.396 389.804 141.75 390.395 142.006C390.995 142.262 391.576 142.473 392.136 142.637L396.37 143.914C396.81 144.037 397.325 144.216 397.916 144.452C398.516 144.678 399.097 145.006 399.657 145.437C400.228 145.857 400.698 146.411 401.068 147.098C401.439 147.786 401.624 148.657 401.624 149.714C401.624 150.739 401.424 151.657 401.023 152.468C400.633 153.278 400.078 153.96 399.357 154.514C398.647 155.068 397.811 155.488 396.85 155.775C395.899 156.073 394.859 156.221 393.728 156.221Z" fill="#1121B1"/>
<path d="M410.923 156.175C409.952 156.175 409.101 156.021 408.371 155.714C407.65 155.406 407.035 154.991 406.524 154.468C406.024 153.945 405.618 153.35 405.308 152.683C404.998 152.006 404.773 151.293 404.633 150.545C404.493 149.786 404.422 149.032 404.422 148.283V139.145H406.644V147.621C406.644 148.534 406.729 149.38 406.899 150.16C407.07 150.939 407.34 151.621 407.71 152.206C408.09 152.78 408.576 153.227 409.166 153.545C409.767 153.862 410.492 154.021 411.343 154.021C412.124 154.021 412.809 153.883 413.4 153.606C414 153.329 414.501 152.934 414.901 152.421C415.311 151.898 415.621 151.268 415.832 150.529C416.042 149.78 416.147 148.939 416.147 148.006L417.708 148.36C417.708 150.062 417.418 151.493 416.837 152.652C416.257 153.811 415.456 154.688 414.435 155.283C413.415 155.878 412.244 156.175 410.923 156.175ZM416.372 155.76V151.668H416.147V139.145H418.354V155.76H416.372Z" fill="#1121B1"/>
<path d="M429.83 156.221C428.339 156.221 427.078 155.837 426.047 155.068C425.016 154.288 424.236 153.237 423.705 151.914C423.175 150.58 422.91 149.088 422.91 147.437C422.91 145.755 423.175 144.257 423.705 142.945C424.246 141.621 425.036 140.58 426.077 139.821C427.118 139.062 428.399 138.683 429.92 138.683C431.402 138.683 432.673 139.068 433.733 139.837C434.794 140.606 435.605 141.652 436.165 142.975C436.736 144.298 437.021 145.786 437.021 147.437C437.021 149.098 436.736 150.591 436.165 151.914C435.595 153.237 434.774 154.288 433.703 155.068C432.633 155.837 431.341 156.221 429.83 156.221ZM422.534 163.145V139.145H424.516V151.652H424.756V163.145H422.534ZM429.605 154.114C430.736 154.114 431.677 153.821 432.427 153.237C433.178 152.652 433.738 151.857 434.109 150.852C434.489 149.837 434.679 148.698 434.679 147.437C434.679 146.186 434.494 145.057 434.124 144.052C433.753 143.047 433.188 142.252 432.427 141.668C431.677 141.083 430.721 140.791 429.56 140.791C428.429 140.791 427.488 141.073 426.738 141.637C425.997 142.201 425.442 142.986 425.071 143.991C424.701 144.986 424.516 146.134 424.516 147.437C424.516 148.719 424.701 149.868 425.071 150.883C425.442 151.888 426.002 152.678 426.753 153.252C427.503 153.827 428.454 154.114 429.605 154.114Z" fill="#1121B1"/>
<path d="M447.598 156.221C446.107 156.221 444.846 155.837 443.815 155.068C442.785 154.288 442.004 153.237 441.473 151.914C440.943 150.58 440.678 149.088 440.678 147.437C440.678 145.755 440.943 144.257 441.473 142.945C442.014 141.621 442.805 140.58 443.845 139.821C444.886 139.062 446.167 138.683 447.688 138.683C449.17 138.683 450.441 139.068 451.502 139.837C452.562 140.606 453.373 141.652 453.933 142.975C454.504 144.298 454.789 145.786 454.789 147.437C454.789 149.098 454.504 150.591 453.933 151.914C453.363 153.237 452.542 154.288 451.471 155.068C450.401 155.837 449.11 156.221 447.598 156.221ZM440.303 163.145V139.145H442.284V151.652H442.524V163.145H440.303ZM447.373 154.114C448.504 154.114 449.445 153.821 450.195 153.237C450.946 152.652 451.507 151.857 451.877 150.852C452.257 149.837 452.447 148.698 452.447 147.437C452.447 146.186 452.262 145.057 451.892 144.052C451.522 143.047 450.956 142.252 450.195 141.668C449.445 141.083 448.489 140.791 447.328 140.791C446.197 140.791 445.257 141.073 444.506 141.637C443.765 142.201 443.21 142.986 442.84 143.991C442.469 144.986 442.284 146.134 442.284 147.437C442.284 148.719 442.469 149.868 442.84 150.883C443.21 151.888 443.77 152.678 444.521 153.252C445.272 153.827 446.222 154.114 447.373 154.114Z" fill="#1121B1"/>
<path d="M464.856 156.221C463.245 156.221 461.869 155.847 460.728 155.098C459.587 154.35 458.711 153.314 458.101 151.991C457.49 150.668 457.185 149.15 457.185 147.437C457.185 145.693 457.495 144.165 458.116 142.852C458.736 141.539 459.617 140.519 460.758 139.791C461.909 139.052 463.275 138.683 464.856 138.683C466.477 138.683 467.858 139.057 468.999 139.806C470.15 140.545 471.026 141.575 471.626 142.898C472.237 144.211 472.542 145.724 472.542 147.437C472.542 149.18 472.237 150.714 471.626 152.037C471.016 153.35 470.135 154.375 468.984 155.114C467.833 155.852 466.457 156.221 464.856 156.221ZM464.856 154.052C466.658 154.052 467.999 153.442 468.879 152.221C469.76 150.991 470.2 149.396 470.2 147.437C470.2 145.427 469.755 143.827 468.864 142.637C467.984 141.447 466.648 140.852 464.856 140.852C463.645 140.852 462.644 141.134 461.854 141.698C461.073 142.252 460.488 143.027 460.097 144.021C459.717 145.006 459.527 146.145 459.527 147.437C459.527 149.437 459.977 151.042 460.878 152.252C461.779 153.452 463.105 154.052 464.856 154.052Z" fill="#1121B1"/>
<path d="M475.854 155.76V139.145H477.835V143.145L477.445 142.621C477.625 142.129 477.86 141.678 478.151 141.268C478.441 140.847 478.756 140.504 479.096 140.237C479.517 139.857 480.007 139.57 480.568 139.375C481.128 139.17 481.693 139.052 482.264 139.021C482.834 138.98 483.355 139.021 483.825 139.145V141.268C483.235 141.114 482.589 141.078 481.889 141.16C481.188 141.242 480.543 141.529 479.952 142.021C479.412 142.452 479.006 142.97 478.736 143.575C478.466 144.17 478.286 144.806 478.196 145.483C478.106 146.15 478.061 146.811 478.061 147.468V155.76H475.854Z" fill="#1121B1"/>
<path d="M495.5 155.76C494.589 155.955 493.689 156.032 492.798 155.991C491.917 155.95 491.127 155.755 490.426 155.406C489.735 155.057 489.21 154.514 488.85 153.775C488.559 153.16 488.399 152.539 488.369 151.914C488.349 151.278 488.339 150.555 488.339 149.745V134.529H490.531V149.652C490.531 150.35 490.536 150.934 490.546 151.406C490.566 151.868 490.671 152.278 490.861 152.637C491.222 153.324 491.792 153.734 492.573 153.868C493.363 154.001 494.339 153.97 495.5 153.775V155.76ZM484.872 141.083V139.145H495.5V141.083H484.872Z" fill="#1121B1"/>
<defs>
<filter id="filter0_i_5805_110493" x="0.5" y="0" width="182" height="182" filterUnits="userSpaceOnUse" color-interpolation-filters="sRGB">
<feFlood flood-opacity="0" result="BackgroundImageFix"/>
<feBlend mode="normal" in="SourceGraphic" in2="BackgroundImageFix" result="shape"/>
<feColorMatrix in="SourceAlpha" type="matrix" values="0 0 0 0 0 0 0 0 0 0 0 0 0 0 0 0 0 0 127 0" result="hardAlpha"/>
<feOffset dx="2" dy="2"/>
<feGaussianBlur stdDeviation="1.2"/>
<feComposite in2="hardAlpha" operator="arithmetic" k2="-1" k3="1"/>
<feColorMatrix type="matrix" values="0 0 0 0 0.93196 0 0 0 0 0.93868 0 0 0 0 1 0 0 0 0.74 0"/>
<feBlend mode="normal" in2="shape" result="effect1_innerShadow_5805_110493"/>
</filter>
<filter id="filter1_f_5805_110493" x="54.1063" y="134.53" width="198.787" height="73.4203" filterUnits="userSpaceOnUse" color-interpolation-filters="sRGB">
<feFlood flood-opacity="0" result="BackgroundImageFix"/>
<feBlend mode="normal" in="SourceGraphic" in2="BackgroundImageFix" result="shape"/>
<feGaussianBlur stdDeviation="12.4" result="effect1_foregroundBlur_5805_110493"/>
</filter>
<filter id="filter2_f_5805_110493" x="128.675" y="52.4207" width="80.3412" height="215.791" filterUnits="userSpaceOnUse" color-interpolation-filters="sRGB">
<feFlood flood-opacity="0" result="BackgroundImageFix"/>
<feBlend mode="normal" in="SourceGraphic" in2="BackgroundImageFix" result="shape"/>
<feGaussianBlur stdDeviation="12.4" result="effect1_foregroundBlur_5805_110493"/>
</filter>
<filter id="filter3_f_5805_110493" x="-30.2912" y="-72.5598" width="67.6" height="199.6" filterUnits="userSpaceOnUse" color-interpolation-filters="sRGB">
<feFlood flood-opacity="0" result="BackgroundImageFix"/>
<feBlend mode="normal" in="SourceGraphic" in2="BackgroundImageFix" result="shape"/>
<feGaussianBlur stdDeviation="12.4" result="effect1_foregroundBlur_5805_110493"/>
</filter>
<filter id="filter4_f_5805_110493" x="-82.4436" y="-30.5168" width="223.194" height="81.6312" filterUnits="userSpaceOnUse" color-interpolation-filters="sRGB">
<feFlood flood-opacity="0" result="BackgroundImageFix"/>
<feBlend mode="normal" in="SourceGraphic" in2="BackgroundImageFix" result="shape"/>
<feGaussianBlur stdDeviation="12.4" result="effect1_foregroundBlur_5805_110493"/>
</filter>
<filter id="filter5_d_5805_110493" x="27.2725" y="20" width="126.795" height="140.127" filterUnits="userSpaceOnUse" color-interpolation-filters="sRGB">
<feFlood flood-opacity="0" result="BackgroundImageFix"/>
<feColorMatrix in="SourceAlpha" type="matrix" values="0 0 0 0 0 0 0 0 0 0 0 0 0 0 0 0 0 0 127 0" result="hardAlpha"/>
<feOffset dy="4"/>
<feGaussianBlur stdDeviation="2"/>
<feComposite in2="hardAlpha" operator="out"/>
<feColorMatrix type="matrix" values="0 0 0 0 0.00759761 0 0 0 0 0.0569633 0 0 0 0 0.524038 0 0 0 1 0"/>
<feBlend mode="normal" in2="BackgroundImageFix" result="effect1_dropShadow_5805_110493"/>
<feBlend mode="normal" in="SourceGraphic" in2="effect1_dropShadow_5805_110493" result="shape"/>
</filter>
<filter id="filter6_if_5805_110493" x="-11.6" y="-11.9809" width="203.2" height="203.2" filterUnits="userSpaceOnUse" color-interpolation-filters="sRGB">
<feFlood flood-opacity="0" result="BackgroundImageFix"/>
<feBlend mode="normal" in="SourceGraphic" in2="BackgroundImageFix" result="shape"/>
<feColorMatrix in="SourceAlpha" type="matrix" values="0 0 0 0 0 0 0 0 0 0 0 0 0 0 0 0 0 0 127 0" result="hardAlpha"/>
<feOffset dx="2" dy="2"/>
<feGaussianBlur stdDeviation="1.2"/>
<feComposite in2="hardAlpha" operator="arithmetic" k2="-1" k3="1"/>
<feColorMatrix type="matrix" values="0 0 0 0 0.93196 0 0 0 0 0.93868 0 0 0 0 1 0 0 0 0.74 0"/>
<feBlend mode="normal" in2="shape" result="effect1_innerShadow_5805_110493"/>
<feGaussianBlur stdDeviation="5.8" result="effect2_foregroundBlur_5805_110493"/>
</filter>
<radialGradient id="paint0_radial_5805_110493" cx="0" cy="0" r="1" gradientUnits="userSpaceOnUse" gradientTransform="translate(0.133256 0.54045) rotate(44.8107) scale(254.757 541.894)">
<stop offset="0.0946751" stop-color="#4F60FF"/>
<stop offset="0.322328" stop-color="#1629D0"/>
<stop offset="0.537292" stop-color="#0E1DA5"/>
<stop offset="0.942308" stop-color="#000D87"/>
</radialGradient>
<linearGradient id="paint1_linear_5805_110493" x1="153.5" y1="162.24" x2="153.5" y2="180.24" gradientUnits="userSpaceOnUse">
<stop stop-color="#97FFD5"/>
<stop offset="1" stop-color="#00CE7C"/>
</linearGradient>
<linearGradient id="paint2_linear_5805_110493" x1="168.845" y1="151.316" x2="168.845" y2="169.316" gradientUnits="userSpaceOnUse">
<stop stop-color="#97FFD5"/>
<stop offset="1" stop-color="#00CE7C"/>
</linearGradient>
<linearGradient id="paint3_linear_5805_110493" x1="3.50879" y1="18.2402" x2="3.50879" y2="36.2402" gradientUnits="userSpaceOnUse">
<stop stop-color="#EFF1FF"/>
<stop offset="1" stop-color="#C1C6F9"/>
</linearGradient>
<linearGradient id="paint4_linear_5805_110493" x1="29.1532" y1="1.2983" x2="29.1532" y2="19.2983" gradientUnits="userSpaceOnUse">
<stop stop-color="#EFF1FF"/>
<stop offset="1" stop-color="#C1C6F9"/>
</linearGradient>
<linearGradient id="paint5_linear_5805_110493" x1="90" y1="-0.380859" x2="152.5" y2="179.24" gradientUnits="userSpaceOnUse">
<stop stop-color="#AFB7FF"/>
<stop offset="1" stop-color="#15FFA1"/>
</linearGradient>
<clipPath id="clip0_5805_110493">
<rect x="0.5" width="180" height="180" rx="40" fill="white"/>
</clipPath>
</defs>
</svg>
